<?xml version="1.0" encoding="UTF-8"?>
<svg version="1.1" xmlns="http://www.w3.org/2000/svg" width="358" height="353">
<path d="M0 0 C1.08796875 -0.020625 2.1759375 -0.04125 3.296875 -0.0625 C4.3384375 -0.06765625 5.38 -0.0728125 6.453125 -0.078125 C7.39833008 -0.0874707 8.34353516 -0.09681641 9.31738281 -0.10644531 C12.24669249 0.32277911 12.92852913 0.97477451 14.75 3.25 C15.04500945 6.19455365 15.15447183 8.92768099 15.13095093 11.87342834 C15.1356309 12.7647949 15.14031087 13.65616146 15.14513266 14.57453912 C15.15713713 17.57336119 15.14760418 20.57173086 15.13818359 23.57055664 C15.14224684 25.71551277 15.14758733 27.86046682 15.15411377 30.00541687 C15.16782167 35.83995012 15.16247459 41.67432471 15.15297651 47.50886083 C15.14539888 53.60449871 15.15242014 59.70012271 15.15713501 65.79576111 C15.16259768 76.03256681 15.15538708 86.26930765 15.14111328 96.50610352 C15.12478147 108.35600386 15.13007713 120.2057494 15.1465925 132.055646 C15.16018759 142.21532745 15.16213685 152.37496219 15.15427649 162.53464979 C15.14958964 168.60896719 15.14900291 174.68321172 15.15888596 180.75752449 C15.16752476 186.46614043 15.16159037 192.17455592 15.14420319 197.8831501 C15.14022198 199.98347134 15.1414001 202.08380932 15.14799118 204.18412399 C15.15613232 207.04083217 15.14597567 209.89688915 15.13095093 212.7535553 C15.14098918 214.01408733 15.14098918 214.01408733 15.15123022 215.30008465 C15.12752342 217.60769749 15.12752342 217.60769749 14.75 221.25 C11.06282562 223.70811625 9.10654296 223.56118164 4.75 223.25 C3.265 222.26 3.265 222.26 1.75 221.25 C1.45576389 218.43970779 1.35894089 215.84967998 1.38923645 213.03707886 C1.38667318 212.17782401 1.3841099 211.31856917 1.38146895 210.4332763 C1.37650451 207.53719862 1.39306762 204.64163557 1.40942383 201.74560547 C1.41026953 199.67637138 1.40979608 197.60713639 1.40809631 195.53790283 C1.4072327 189.90589127 1.42491761 184.27406992 1.44581819 178.64210272 C1.46452411 172.76174721 1.46633061 166.88138774 1.46989441 161.00100708 C1.4792328 149.85916814 1.50387083 138.71741712 1.53394288 127.57561696 C1.56743113 114.89384114 1.58395885 102.21206121 1.59902918 89.53025222 C1.63041884 63.436786 1.68321413 37.34339792 1.75 11.25 C-1.61291793 11.7068879 -4.97450251 12.17296163 -8.3359375 12.640625 C-9.28202881 12.76904785 -10.22812012 12.8974707 -11.20288086 13.02978516 C-23.47945679 14.74925338 -35.22275695 18.22275695 -44.25 27.25 C-44.21809156 29.26023175 -44.18096784 31.27273669 -44.02734375 33.27734375 C-44.25 35.25 -44.25 35.25 -45.3125 36.9453125 C-48.1960233 38.88703988 -50.87414955 38.87619462 -54.3125 39.1875 C-66.2395025 40.54638096 -74.10867385 44.21402263 -82.25 53.25 C-84.00336654 55.81844503 -85.21274301 58.32517651 -86.25 61.25 C-86.86875 62.9515625 -86.86875 62.9515625 -87.5 64.6875 C-89.23109676 72.91020962 -87.97663713 79.38930466 -85.25 87.25 C-84.858125 88.44625 -84.46625 89.6425 -84.0625 90.875 C-83.794375 91.65875 -83.52625 92.4425 -83.25 93.25 C-85.48017924 95.48017924 -86.92469476 95.92818505 -89.875 96.9375 C-99.44534099 100.72978209 -103.82631145 106.35663058 -108.12109375 115.578125 C-111.69619413 124.03960826 -111.4147931 134.23058239 -108.34375 142.875 C-104.31404045 151.62522645 -99.08688936 157.29472007 -90.25 161.25 C-85.62414204 162.54524023 -81.02822456 162.33238318 -76.25 162.25 C-74.46998778 165.51335574 -74.14041032 166.84295263 -75.125 170.5 C-75.49625 171.7375 -75.8675 172.975 -76.25 174.25 C-77.30719397 182.13490504 -75.17157785 188.88700709 -70.77734375 195.44921875 C-65.14626186 202.43815017 -57.1626626 207.73937922 -48.25 209.25 C-38.60093684 209.93213171 -31.09645251 209.55311554 -23.4375 203.375 C-21.23174992 201.38783776 -20.13459464 200.03765414 -18.6875 197.375 C-18.213125 196.67375 -17.73875 195.9725 -17.25 195.25 C-13.67402849 194.641324 -11.95309234 194.80594168 -8.875 196.75 C-8.33875 197.245 -7.8025 197.74 -7.25 198.25 C-7.51913248 204.70917951 -9.68007937 208.68007937 -14.25 213.25 C-24.08299785 220.88260672 -35.11258206 222.63571532 -47.25 223.25 C-39.65016053 237.29818811 -29.64990918 245.77562806 -14.28515625 250.4375 C6.99707493 256.13467385 30.91944475 254.9858757 50.4921875 244.359375 C59.70220791 238.39605243 66.83850027 231.18070778 71.75 221.25 C71.15316406 221.38277344 70.55632812 221.51554688 69.94140625 221.65234375 C63.95929891 222.87009814 58.02019872 223.58384659 51.9375 224 C50.86254272 224.08495728 50.86254272 224.08495728 49.76586914 224.17163086 C45.29775625 224.43837611 41.8750576 223.99351592 37.75 222.25 C36.75 221.25 36.75 221.25 36.5625 217.8125 C36.75 214.25 36.75 214.25 38.75 212.25 C41.1192796 212.04320502 43.49748205 211.9354848 45.875 211.875 C61.6733197 211.16179407 75.79465128 207.25563023 86.9921875 195.46875 C91.68725225 189.54253494 95.0001116 182.62913229 94.7421875 174.9921875 C94.72542969 174.20199219 94.70867187 173.41179687 94.69140625 172.59765625 C94.64691965 170.9411848 94.59476175 169.2849026 94.53515625 167.62890625 C94.52097656 166.84128906 94.50679687 166.05367187 94.4921875 165.2421875 C94.4701123 164.52401855 94.44803711 163.80584961 94.42529297 163.06591797 C94.58602295 162.16703857 94.58602295 162.16703857 94.75 161.25 C98.46499122 158.77333918 100.35907888 158.70113486 104.75 159.25 C108.10059323 163.25833094 108.25865545 167.29127845 108.1875 172.3125 C108.17920166 173.06547363 108.17090332 173.81844727 108.16235352 174.59423828 C107.82641538 185.82007132 103.74176466 195.47628754 96.75 204.25 C95.17939174 205.6429493 93.57498917 206.998823 91.9375 208.3125 C87.72665884 211.81563677 86.97062049 214.10150226 86.30859375 219.4140625 C83.55489344 233.39438715 73.10481525 244.54829937 61.7578125 252.37109375 C47.75919824 261.11568266 33.32474418 266.25 16.75 266.25 C16.75 272.52 16.75 278.79 16.75 285.25 C19.67875 285.1675 22.6075 285.085 25.625 285 C33.89802767 284.92909836 41.08770737 285.19625925 47.60546875 290.86328125 C51.75543051 295.30896475 53.49998703 299.54985988 54.0625 305.625 C53.51236535 312.00656193 51.46740596 317.77451229 46.75 322.25 C39.49168554 326.95301786 33.2412568 327.98579545 24.71484375 327.87890625 C23.59614395 327.88131821 22.47744415 327.88373016 21.32484436 327.88621521 C18.97425774 327.8852413 16.62364687 327.87195786 14.27319336 327.84692383 C10.6936998 327.81255952 7.11667196 327.82630636 3.53710938 327.84570312 C1.24217709 327.838805 -1.05274889 327.82913293 -3.34765625 327.81640625 C-4.40727066 327.82136612 -5.46688507 327.82632599 -6.55860901 327.83143616 C-14.70736979 327.70342938 -21.12661446 326.23758617 -27.125 320.5 C-30.9546005 314.64296395 -33.02571664 309.36073588 -32.25 302.25 C-30.28039152 296.34117457 -27.63237403 291.37838767 -22.30078125 288.0234375 C-14.3212264 284.25719599 -5.91795777 284.52517326 2.75 284.25 C2.75 278.64 2.75 273.03 2.75 267.25 C1.45707031 267.01925781 0.16414063 266.78851563 -1.16796875 266.55078125 C-21.26095135 262.83889461 -40.44359137 256.51608748 -53.32421875 239.51171875 C-57.13413234 233.73694406 -60.75297821 227.69596207 -61.53515625 220.69921875 C-62.02859959 218.10457458 -62.02859959 218.10457458 -64.25390625 216.73046875 C-65.09824219 216.30378906 -65.94257812 215.87710938 -66.8125 215.4375 C-77.32422124 209.52278506 -85.28985744 199.86231065 -88.6875 188.125 C-89.36494859 183.45813192 -89.42354002 178.95486277 -89.25 174.25 C-90.52875 174.064375 -91.8075 173.87875 -93.125 173.6875 C-102.82392247 171.49496494 -110.59673508 164.1696072 -116.25 156.25 C-123.67406843 143.00757769 -125.74229792 128.00026586 -121.6875 113.3125 C-118.02462335 102.98164015 -110.35102807 92.15621363 -100.25 87.25 C-99.59 87.25 -98.93 87.25 -98.25 87.25 C-98.56453125 86.55132812 -98.8790625 85.85265625 -99.203125 85.1328125 C-102.9429217 74.8344171 -101.61823315 63.03016671 -97.1875 53.1875 C-90.39026639 40.64949431 -79.6376369 32.60475468 -66.25 28.25 C-64.79452776 27.94437588 -63.33627886 27.65153144 -61.875 27.375 C-57.25925893 25.94252863 -56.648885 24.35131951 -54.25 20.25 C-44.89403586 8.62834654 -30.27180591 3.36597246 -16.03515625 0.6328125 C-10.6865477 0.09187995 -5.37288951 0.0258312 0 0 Z M-17.43994141 301.09570312 C-19.49715791 304.09582783 -19.49715791 304.09582783 -19.3125 307.375 C-18.08752006 310.68965161 -17.10371874 312.16755659 -14.25 314.25 C-9.36899595 315.36533117 -4.57531057 315.41085142 0.40234375 315.41796875 C1.22070206 315.42129715 2.03906036 315.42462555 2.88221741 315.42805481 C4.60596152 315.43309725 6.32971531 315.43546397 8.0534668 315.43530273 C10.67578338 315.43749023 13.29767951 315.4556771 15.91992188 315.47460938 C17.60156107 315.47754375 19.28320225 315.47952825 20.96484375 315.48046875 C21.74109604 315.48765427 22.51734833 315.49483978 23.31712341 315.50224304 C28.71867806 315.47981259 34.06063055 315.13255862 38.625 311.9375 C40.16635768 309.62546348 40.61738112 308.03499647 40.75 305.25 C39.12844371 301.76365399 37.98546708 300.40697806 34.75 298.25 C32.50493749 297.92042565 32.50493749 297.92042565 29.99072266 297.92773438 C29.02607086 297.90851929 28.06141907 297.8893042 27.0675354 297.86950684 C26.02688934 297.86100708 24.98624329 297.85250732 23.9140625 297.84375 C22.84255951 297.83234985 21.77105652 297.82094971 20.66708374 297.8092041 C18.39918976 297.7903055 16.13124088 297.77723666 13.86328125 297.76953125 C10.3948589 297.75011119 6.92880361 297.68807003 3.4609375 297.625 C1.25782658 297.61194025 -0.94530129 297.60143918 -3.1484375 297.59375 C-4.1850351 297.5690564 -5.22163269 297.54436279 -6.28964233 297.5189209 C-12.58465863 297.4982814 -12.58465863 297.4982814 -17.43994141 301.09570312 Z " fill="#17A4BB" transform="translate(170.25,16.75)"/>
<path d="M0 0 C3.12291165 1.68012647 5.39164837 3.78329674 7 7 C7.39771327 11.77255923 7.47453429 14.08482672 5.25 18.375 C2.64516054 21.41397937 0.79228239 22.81382982 -3.21875 23.23046875 C-4.34796875 23.20919922 -4.34796875 23.20919922 -5.5 23.1875 C-6.2528125 23.18105469 -7.005625 23.17460937 -7.78125 23.16796875 C-10 23 -10 23 -11.8918457 22.35571289 C-14.68885719 21.88376781 -15.60330673 22.59992453 -17.94921875 24.140625 C-19.08423828 24.87249023 -19.08423828 24.87249023 -20.2421875 25.61914062 C-21.04914063 26.15732422 -21.85609375 26.69550781 -22.6875 27.25 C-23.53183594 27.79849609 -24.37617188 28.34699219 -25.24609375 28.91210938 C-26.99353433 30.04873053 -28.73749706 31.19071557 -30.47802734 32.33789062 C-33.45562464 34.30028002 -36.44882444 36.23761653 -39.44458008 38.17211914 C-40.819235 39.06019945 -42.19276521 39.95002303 -43.56518555 40.84155273 C-49.77877894 44.8758543 -56.04116175 48.83113887 -62.31835938 52.765625 C-67.00152262 55.70839598 -71.60309982 58.74079049 -76.15234375 61.88745117 C-78 63 -78 63 -80 63 C-80.0928125 64.3303125 -80.0928125 64.3303125 -80.1875 65.6875 C-81.19453736 69.79311386 -82.78879509 71.32399591 -86 74 C-89.72851342 75.24283781 -93.12746761 75.5280726 -97 75 C-101.32777286 72.79528552 -104.26335482 70.59700194 -106 66 C-106.38453268 61.92847755 -106.0148365 58.55396839 -103.75 55.0859375 C-100.21950018 51.50451701 -97.31215034 50.62942972 -92.3125 50.5625 C-87.52255565 50.7860759 -87.52255565 50.7860759 -85.19897461 51.73730469 C-81.75450238 52.14879043 -80.07030686 50.44671618 -77.265625 48.51171875 C-76.71546722 48.13793594 -76.16530945 47.76415314 -75.59848022 47.37904358 C-73.80784509 46.15953191 -72.02931337 44.92345661 -70.25 43.6875 C-68.39860075 42.42220309 -66.5440746 41.16158985 -64.6892395 39.90133667 C-63.46651653 39.07030252 -62.24472985 38.23788907 -61.02389526 37.40408325 C-56.62433111 34.40326167 -52.16876043 31.52593276 -47.625 28.75 C-41.33246543 24.85733372 -35.08104526 20.90429008 -28.875 16.875 C-27.54009521 16.03146973 -27.54009521 16.03146973 -26.17822266 15.17089844 C-21.16519387 11.88495126 -17.56772039 8.72747728 -14.25830078 3.70361328 C-10.66313778 -1.16387748 -5.48063396 -0.85954042 0 0 Z " fill="#9EB66F" transform="translate(312,131)"/>
<path d="M0 0 C3.21607609 1.50083551 5.75184182 3.25295279 8 6 C8.89301622 10.74666278 8.6887291 14.81932155 6.25 19 C2.12910656 22.66301639 -0.59442906 23.22075753 -6 23.16796875 C-8 23 -8 23 -9.90942383 22.36669922 C-13.12859952 21.80203708 -14.91669263 23.59766382 -17.48022461 25.36523438 C-18.20862549 25.88408203 -18.93702637 26.40292969 -19.6875 26.9375 C-21.30558579 28.05325919 -22.92548103 29.1663974 -24.546875 30.27734375 C-25.42150391 30.8791748 -26.29613281 31.48100586 -27.19726562 32.10107422 C-32.21348538 35.49969419 -37.32770072 38.74451619 -42.4375 42 C-44.02389282 43.01465332 -44.02389282 43.01465332 -45.64233398 44.04980469 C-50.62555727 47.23252168 -55.62007012 50.39446934 -60.64453125 53.51171875 C-61.9440271 54.32092773 -61.9440271 54.32092773 -63.26977539 55.14648438 C-64.86806835 56.13953735 -66.46987601 57.12696666 -68.07592773 58.10742188 C-73.12106414 61.24372656 -76.98599156 64.79717827 -81 69.1875 C-84.60178861 72.45162093 -87.06805264 73.01479282 -91.9375 72.9375 C-96.48886054 72.23065992 -98.78288516 70.21711484 -102 67 C-103.73125121 63.53749757 -103.47815224 59.78591771 -103 56 C-100.8461495 52.38460809 -98.84196315 50.59147014 -95 49 C-92.78125 48.734375 -92.78125 48.734375 -90.5 48.75 C-89.7471875 48.74484375 -88.994375 48.7396875 -88.21875 48.734375 C-86 49 -86 49 -83.96875 50.078125 C-81.4498706 51.25760027 -80.60514552 50.85548805 -78 50 C-76.04473996 49.01272203 -76.04473996 49.01272203 -74.09375 47.77734375 C-73.34867188 47.32037109 -72.60359375 46.86339844 -71.8359375 46.39257812 C-71.06507813 45.91240234 -70.29421875 45.43222656 -69.5 44.9375 C-68.76007813 44.48439453 -68.02015625 44.03128906 -67.2578125 43.56445312 C-61.80123084 40.19831956 -56.47090146 36.65915348 -51.14550781 33.09008789 C-45.85104243 29.57208741 -40.48667211 26.16433357 -35.125 22.75 C-31.95988083 20.73242404 -28.79552394 18.7138928 -25.63745117 16.68530273 C-24.09445842 15.69934707 -22.54523331 14.72280521 -20.98168945 13.76977539 C-17.89018837 11.84982997 -16.24742389 10.35383416 -14.9375 6.9375 C-13.7056379 4.23745939 -13.02090651 3.01858357 -10.75 1 C-7.05991048 -0.34185073 -3.88120743 -0.59044738 0 0 Z " fill="#9EB66D" transform="translate(309,86)"/>
<path d="M0 0 C2.80956202 2.30615381 4.84891942 4.26483071 5.2890625 7.9375 C5.41748905 11.95927887 5.40688988 14.32932595 3.36328125 17.88671875 C-1.1804996 21.93928005 -4.96545174 22.25872394 -10.94921875 21.94921875 C-12.06006836 21.71525391 -13.17091797 21.48128906 -14.31542969 21.24023438 C-18.68721709 20.89011542 -20.11774589 21.69261585 -23.71484375 24.10546875 C-25.29845703 25.14574219 -25.29845703 25.14574219 -26.9140625 26.20703125 C-27.99816406 26.94695312 -29.08226562 27.686875 -30.19921875 28.44921875 C-32.35024884 29.87631953 -34.50129042 31.30340299 -36.65234375 32.73046875 C-37.69712891 33.43171875 -38.74191406 34.13296875 -39.81835938 34.85546875 C-42.90523212 36.91980286 -46.00338524 38.96300832 -49.12109375 40.98046875 C-50.0037793 41.55345703 -50.88646484 42.12644531 -51.79589844 42.71679688 C-53.94921875 43.94921875 -53.94921875 43.94921875 -55.94921875 43.94921875 C-56.17609375 44.69171875 -56.40296875 45.43421875 -56.63671875 46.19921875 C-58.2488183 49.57695114 -59.80107893 50.94585704 -62.94921875 52.94921875 C-67.79460819 54.42390249 -71.29710395 53.89464857 -75.94921875 51.94921875 C-79.02090495 49.26966271 -80.62010917 47.72954485 -81.359375 43.73046875 C-81.53702696 39.09606968 -81.17635006 35.4886531 -77.94921875 31.94921875 C-72.43113402 28.70328656 -68.98659264 28.68331777 -62.94921875 29.94921875 C-62.15249756 30.35309814 -61.35577637 30.75697754 -60.53491211 31.1730957 C-57.93023371 32.24587675 -57.93023371 32.24587675 -55.40063477 30.94213867 C-54.51045654 30.36052979 -53.62027832 29.7789209 -52.703125 29.1796875 C-51.70700195 28.54224609 -50.71087891 27.90480469 -49.68457031 27.24804688 C-48.6375293 26.55130859 -47.59048828 25.85457031 -46.51171875 25.13671875 C-45.44018555 24.44126953 -44.36865234 23.74582031 -43.26464844 23.02929688 C-41.12876854 21.64236188 -38.99699694 20.24907711 -36.86962891 18.84912109 C-34.40431446 17.24528586 -31.92201938 15.69701338 -29.3984375 14.1875 C-28.75898193 13.79989502 -28.11952637 13.41229004 -27.46069336 13.01293945 C-25.82983229 12.02809376 -24.19440401 11.05082189 -22.55859375 10.07421875 C-20.12107817 8.08917612 -19.26672385 6.99582405 -17.83984375 4.32421875 C-14.34110196 -1.92146908 -6.40478104 -3.45267755 0 0 Z " fill="#9EB76C" transform="translate(285.94921875,58.05078125)"/>
<path d="M0 0 C3.67764287 1.99871895 5.24333807 3.90624965 6.5 7.8125 C7.37767415 12.2505504 6.29806494 15.0932896 4 19 C1.08591925 22.36240087 -2.3694038 22.56800152 -6.5859375 23.08203125 C-9 23 -9 23 -11.875 21.8046875 C-15.06390208 20.66443941 -15.06390208 20.66443941 -18.2890625 22.23828125 C-24.50283319 26.10187872 -28.81461834 28.90033234 -31.27734375 36.078125 C-32 38 -32 38 -34.0625 40.0625 C-39.15626654 41.68817017 -45.01605586 42.43300084 -49.9765625 40.05078125 C-53.18468172 37.54591969 -55.18969511 34.96149055 -56 31 C-56.13756064 26.28854817 -55.68153562 23.00100545 -53 19.0625 C-49.10348385 16.38364515 -45.75718961 15.08345947 -41 15 C-39.35422742 15.54504585 -37.72809486 16.15240211 -36.125 16.8125 C-32.59501109 18.10719813 -31.48908579 18.21977102 -27.9921875 16.6484375 C-26.03928005 15.36859476 -24.12175651 14.0325599 -22.25 12.63671875 C-20 11 -20 11 -18 11 C-17.95875 10.113125 -17.9175 9.22625 -17.875 8.3125 C-16.66249778 3.72231303 -14.85251361 2.69675953 -11 0 C-7.13394995 -1.28868335 -3.88909035 -0.95708083 0 0 Z " fill="#9FB86B" transform="translate(261,23)"/>
<path d="M0 0 C1.45742463 -0.08096803 2.91612807 -0.13917774 4.375 -0.1875 C5.18710938 -0.22230469 5.99921875 -0.25710937 6.8359375 -0.29296875 C7.55007812 -0.19628906 8.26421875 -0.09960938 9 0 C11 3 11 3 10.93359375 5.05078125 C9.72983718 10.5387738 8.22056303 14.05469108 4 18 C-3.80829327 22.84331511 -12.23568237 24.54873266 -21.3203125 22.46875 C-26.55871213 20.63630602 -30.46294351 18.06707597 -33.8125 13.5625 C-35.0950682 10.79485283 -35.25814896 9.01173788 -35 6 C-31.56924285 3.88876483 -28.99242692 3.36121169 -25 4 C-23.5625 5.30859375 -23.5625 5.30859375 -22.125 6.9375 C-19.87962495 9.41151637 -18.38511148 10.51193239 -15.0625 11.0625 C-10.72920882 11.26135084 -7.70152259 10.34904318 -4 8 C-2.30414175 5.4587139 -1.08952103 2.848996 0 0 Z " fill="#14A4BE" transform="translate(144,147)"/>
<path d="M0 0 C3.29491208 3.59444954 4.11224739 5.85707312 3.9375 10.75 C2.80999799 15.26000805 1.01710486 17.78404635 -2.6875 20.5625 C-7.80043181 22.12478472 -11.58131879 21.94088477 -16.25 19.5625 C-19.04960203 17.15354011 -20.60717678 15.69318952 -21.9375 12.25 C-22.144427 8.00799645 -21.39736117 5.00548621 -19.1875 1.375 C-13.56143576 -3.93850512 -6.52074297 -3.88469794 0 0 Z " fill="#9CB46E" transform="translate(304.9375,179.75)"/>
<path d="M0 0 C4.47870656 2.15937638 7.18198188 4.92952939 10 9 C11.69876246 14.09628739 11.90298846 19.11550235 9.5625 24 C8 26 8 26 7 27 C3.5 27.125 3.5 27.125 0 27 C-0.33 26.67 -0.66 26.34 -1 26 C-0.99414352 24.58273282 -0.94530799 23.1655343 -0.875 21.75 C-0.86842071 17.60504742 -0.9929032 15.09822094 -4 12 C-6.29532151 11.15081512 -8.61245461 10.48570405 -10.96484375 9.8125 C-13 9 -13 9 -14.625 6.5 C-15 4 -15 4 -14 1 C-9.81634937 -1.09182531 -4.55592381 -0.42935408 0 0 Z " fill="#1EA7BF" transform="translate(141,80)"/>
<path d="M0 0 C1.11310547 0.00451172 2.22621094 0.00902344 3.37304688 0.01367188 C6.10292101 0.02538807 8.83268174 0.04179301 11.5625 0.0625 C11.2325 1.0525 10.9025 2.0425 10.5625 3.0625 C10.01013672 3.05202637 9.45777344 3.04155273 8.88867188 3.03076172 C-5.23308258 2.7996891 -18.50601641 3.70159209 -32.4375 6.0625 C-30.05369611 3.67869611 -28.48512611 3.35228839 -25.25 2.5 C-24.32832031 2.25121094 -23.40664062 2.00242187 -22.45703125 1.74609375 C-14.92397117 0.04067911 -7.68573994 -0.05929651 0 0 Z " fill="#6EA7B3" transform="translate(170.4375,16.9375)"/>
<path d="M0 0 C-0.70554068 3.66881155 -2.27735506 6.70450534 -4 10 C-4.66 9.67 -5.32 9.34 -6 9 C-5.01 7.02 -4.02 5.04 -3 3 C-3.59683594 3.13277344 -4.19367188 3.26554688 -4.80859375 3.40234375 C-10.81948307 4.62595718 -16.76196202 5.30868797 -22.875 5.6875 C-23.60001709 5.73575928 -24.32503418 5.78401855 -25.07202148 5.83374023 C-28.88988376 6.04291999 -32.29218231 5.96694069 -36 5 C-36 4.67 -36 4.34 -36 4 C-35.23856689 3.9498877 -34.47713379 3.89977539 -33.69262695 3.84814453 C-30.23195341 3.61558727 -26.77228367 3.37042669 -23.3125 3.125 C-21.51522461 3.00705078 -21.51522461 3.00705078 -19.68164062 2.88671875 C-18.52470703 2.80292969 -17.36777344 2.71914062 -16.17578125 2.6328125 C-14.58117065 2.52283936 -14.58117065 2.52283936 -12.9543457 2.41064453 C-8.27285046 1.75993178 -4.83798749 -0.27645643 0 0 Z " fill="#6899A6" transform="translate(245,235)"/>
<path d="M0 0 C0 0.66 0 1.32 0 2 C-0.99 2 -1.98 2 -3 2 C-3 2.66 -3 3.32 -3 4 C-3.66 4 -4.32 4 -5 4 C-5.33 4.99 -5.66 5.98 -6 7 C-7.70703125 8.75390625 -7.70703125 8.75390625 -9.8125 10.5625 C-10.49957031 11.16191406 -11.18664062 11.76132812 -11.89453125 12.37890625 C-14 14 -14 14 -16.19921875 15.02734375 C-18.35585645 15.92686467 -18.35585645 15.92686467 -19 19 C-19.66 18.67 -20.32 18.34 -21 18 C-16.93089251 11.32666372 -8.68433525 0 0 0 Z " fill="#4EA5B6" transform="translate(133,25)"/>
<path d="M0 0 C2.04647466 1.8380869 3.39251536 3.73060992 5 6 C3.68 5.67 2.36 5.34 1 5 C1 4.34 1 3.68 1 3 C-1.97 2.67 -4.94 2.34 -8 2 C-8 3.98 -8 5.96 -8 8 C-7.34 8 -6.68 8 -6 8 C-6 8.99 -6 9.98 -6 11 C-5.34 11 -4.68 11 -4 11 C-4 11.66 -4 12.32 -4 13 C-3.01 13 -2.02 13 -1 13 C-1 13.66 -1 14.32 -1 15 C-0.01 15.33 0.98 15.66 2 16 C1.34 16.33 0.68 16.66 0 17 C-7.99344262 11.72131148 -7.99344262 11.72131148 -10 7 C-10.1875 4.1875 -10.1875 4.1875 -10 2 C-6.58301703 -0.10275875 -3.97682173 -0.64927702 0 0 Z " fill="#57929F" transform="translate(119,151)"/>
<path d="M0 0 C0.66 0.33 1.32 0.66 2 1 C-6.86060348 6.65570435 -15.64879138 7.33444006 -26 8 C-25.319375 9.11375 -24.63875 10.2275 -23.9375 11.375 C-22.77734375 13.2734375 -22.77734375 13.2734375 -22 15 C-22.33 15.66 -22.66 16.32 -23 17 C-23.66 16.67 -24.32 16.34 -25 16 C-25 15.34 -25 14.68 -25 14 C-25.66 14 -26.32 14 -27 14 C-27.33 11.36 -27.66 8.72 -28 6 C-26.22496094 5.85304687 -26.22496094 5.85304687 -24.4140625 5.703125 C-12.73851126 4.64088843 -12.73851126 4.64088843 -1.75 0.70703125 C-1.1725 0.47371094 -0.595 0.24039063 0 0 Z " fill="#6A909B" transform="translate(149,232)"/>
<path d="M0 0 C0.33 0 0.66 0 1 0 C1.22786458 1.98567708 1.45572917 3.97135417 1.68359375 5.95703125 C1.97170735 8.19396393 1.97170735 8.19396393 3 11 C5.79249585 12.05943373 8.53332493 12.16210038 11.5 12.1875 C12.62921875 12.20876953 12.62921875 12.20876953 13.78125 12.23046875 C16.24864173 11.97417278 17.86356256 11.22845153 20 10 C19.1875 11.9375 19.1875 11.9375 18 14 C14.27097332 15.24300889 10.87289363 15.52712352 7 15 C3.48593506 13.24296753 1.5598446 11.9924518 -0.375 8.5625 C-1.02085426 5.91449754 -1.22615973 3.71391672 -1 1 C-0.67 0.67 -0.34 0.34 0 0 Z " fill="#869A76" transform="translate(208,191)"/>
<path d="M0 0 C0.99 0.33 1.98 0.66 3 1 C2.45585449 1.34256836 1.91170898 1.68513672 1.35107422 2.03808594 C-1.14146265 3.60791248 -3.63323625 5.17894661 -6.125 6.75 C-6.9809375 7.28882812 -7.836875 7.82765625 -8.71875 8.3828125 C-12.34600526 10.67077351 -15.96103757 12.95638547 -19.4921875 15.390625 C-22 17 -22 17 -24 17 C-22.83373112 13.50119336 -22.19943439 13.22366394 -19.140625 11.40625 C-18.35429687 10.93316406 -17.56796875 10.46007812 -16.7578125 9.97265625 C-15.51644531 9.24369141 -15.51644531 9.24369141 -14.25 8.5 C-13.43789062 8.01402344 -12.62578125 7.52804688 -11.7890625 7.02734375 C-10.22065222 6.08987376 -8.64851129 5.15861003 -7.07226562 4.234375 C-5.3903309 3.23250625 -3.74370783 2.17152624 -2.109375 1.09375 C-1.41328125 0.7328125 -0.7171875 0.371875 0 0 Z " fill="#91A084" transform="translate(259,82)"/>
<path d="M0 0 C0.66 0.33 1.32 0.66 2 1 C-2.03523352 5.81123996 -6.04467233 10.13242719 -11 14 C-11.66 13.67 -12.32 13.34 -13 13 C-8.96476648 8.18876004 -4.95532767 3.86757281 0 0 Z " fill="#56A7B6" transform="translate(68,105)"/>
<path d="M0 0 C0.33 0 0.66 0 1 0 C1.2475 1.2375 1.495 2.475 1.75 3.75 C2.74324781 7.56758512 3.55648133 9.79261624 7 12 C11.52732957 13.05054056 15.52013017 13.33377943 20 12 C20 12.66 20 13.32 20 14 C16.03031423 15.98484289 11.31598933 15.54178145 7 15 C3.47255036 13.32983229 1.50590034 10.87982667 -0.4375 7.5 C-1.07800967 4.65329036 -0.79580206 2.78530721 0 0 Z " fill="#88987B" transform="translate(206,49)"/>
<path d="M0 0 C3.83473284 -0.35671933 5.55342875 -0.29771416 8.8125 1.875 C11.22747889 4.22097949 11.96092986 5.04668849 12.09765625 8.3828125 C12.08605469 9.28773437 12.07445312 10.19265625 12.0625 11.125 C12.05347656 12.03507812 12.04445312 12.94515625 12.03515625 13.8828125 C12.02355469 14.58148438 12.01195312 15.28015625 12 16 C13.98 16 15.96 16 18 16 C18 16.66 18 17.32 18 18 C15.66705225 18.04241723 13.33297433 18.04092937 11 18 C10.67 17.67 10.34 17.34 10 17 C10.00585648 15.58273282 10.05469201 14.1655343 10.125 12.75 C10.14457965 8.64479952 9.92250594 6.11105471 7 3 C3.42003741 1.63099646 3.42003741 1.63099646 0 1 C0 0.67 0 0.34 0 0 Z " fill="#558F9D" transform="translate(130,89)"/>
<path d="M0 0 C3.66800075 0.106687 7.33123258 0.0587525 11 0 C11 0.66 11 1.32 11 2 C6.37983427 3.54005524 2.19036324 3.22971922 -2.5625 2.3125 C-6.64841952 1.94105277 -8.5475863 2.8948697 -12 5 C-12.33 4.34 -12.66 3.68 -13 3 C-7.97491068 -0.31655895 -5.99215938 -1.38280601 0 0 Z " fill="#869679" transform="translate(274,77)"/>
<path d="M0 0 C0.66 0.33 1.32 0.66 2 1 C0.93448551 3.48620049 -0.03837059 5.03717151 -2 6.9375 C-5.72072002 10.77449253 -6.11034725 14.11810066 -6.125 19.3125 C-6.09306101 20.87522911 -6.05459773 22.43789839 -6 24 C-8.12076269 20.12179254 -8.37769092 17.45675283 -8 13 C-6.22023576 7.66070727 -3.70695309 4.10770477 0 0 Z " fill="#6DA1AB" transform="translate(146,306)"/>
<path d="M0 0 C-3.01031744 0.93423645 -3.86650268 1.04449911 -7 0 C-7 0.66 -7 1.32 -7 2 C-8.670625 2.309375 -8.670625 2.309375 -10.375 2.625 C-11.57125 3.07875 -12.7675 3.5325 -14 4 C-15.32920026 6.90424656 -15.32920026 6.90424656 -16 10 C-17.625 11.875 -17.625 11.875 -19 13 C-19.66 12.67 -20.32 12.34 -21 12 C-20.01 11.67 -19.02 11.34 -18 11 C-17.95875 10.113125 -17.9175 9.22625 -17.875 8.3125 C-16.66249778 3.72231303 -14.85251361 2.69675953 -11 0 C-6.94952424 -1.35015859 -4.2079832 -0.62084998 0 0 Z " fill="#A5AF9D" transform="translate(261,23)"/>
<path d="M0 0 C0.33 0.66 0.66 1.32 1 2 C0.34 2 -0.32 2 -1 2 C-1.33 2.99 -1.66 3.98 -2 5 C-6.89484534 5.78949118 -11.589723 6.16199858 -16.5625 6.1875 C-17.82191406 6.20167969 -19.08132812 6.21585938 -20.37890625 6.23046875 C-23.93948049 6.00385184 -26.69069877 5.29006658 -30 4 C-26.68952745 2.89650915 -26.19497949 3.16160113 -23 4 C-14.26995922 4.600479 -7.8243002 3.9121501 0 0 Z " fill="#9CB5BB" transform="translate(145,222)"/>
<path d="M0 0 C1.45742463 -0.08096803 2.91612807 -0.13917774 4.375 -0.1875 C5.18710938 -0.22230469 5.99921875 -0.25710937 6.8359375 -0.29296875 C7.55007812 -0.19628906 8.26421875 -0.09960938 9 0 C11 3 11 3 10.7578125 5.26171875 C10.54898438 6.06222656 10.34015625 6.86273438 10.125 7.6875 C9.92132813 8.49574219 9.71765625 9.30398437 9.5078125 10.13671875 C9.34023437 10.75160156 9.17265625 11.36648437 9 12 C8.67 12 8.34 12 8 12 C8 8.7 8 5.4 8 2 C5.69 2 3.38 2 1 2 C0.67 2.66 0.34 3.32 0 4 C0 2.68 0 1.36 0 0 Z " fill="#68A4B1" transform="translate(144,147)"/>
<path d="M0 0 C0.84139757 2.86460547 1.01500321 5.15860156 0.8125 8.125 C0.70916444 15.07144617 3.91880522 20.93476523 7 27 C6.34 27 5.68 27 5 27 C5 26.34 5 25.68 5 25 C4.34 25 3.68 25 3 25 C0.45521511 19.24657329 -1.14233276 14.80728845 -1.125 8.4375 C-1.12757812 7.48746094 -1.13015625 6.53742188 -1.1328125 5.55859375 C-1 3 -1 3 0 0 Z " fill="#9CAFB4" transform="translate(93,187)"/>
<path d="M0 0 C0.66 0 1.32 0 2 0 C2.06058594 0.61488281 2.12117187 1.22976562 2.18359375 1.86328125 C2.26738281 2.67152344 2.35117188 3.47976562 2.4375 4.3125 C2.51871094 5.11300781 2.59992188 5.91351563 2.68359375 6.73828125 C2.95265693 9.16087179 2.95265693 9.16087179 4 12 C5.65204456 12.70211894 7.31923769 13.36971413 9 14 C9.33 14.66 9.66 15.32 10 16 C6.31299634 15.78931408 4.99487529 14.9954447 2.1875 12.5 C-0.83043081 8.63327614 -0.46924131 4.69241308 0 0 Z " fill="#8C9D79" transform="translate(205,95)"/>
<path d="M0 0 C0.66 0 1.32 0 2 0 C2.0825 1.0725 2.165 2.145 2.25 3.25 C3.07999487 7.39997433 3.60072016 8.58472222 7 11 C10.63543901 12.27765265 10.63543901 12.27765265 14 13 C14 13.33 14 13.66 14 14 C8.01345291 14.59865471 8.01345291 14.59865471 5.234375 12.95703125 C3.06489524 11.16141815 1.26928036 9.53856072 0 7 C-0.04022391 4.6670134 -0.04320247 2.33293334 0 0 Z " fill="#879877" transform="translate(206,144)"/>
<path d="M0 0 C0.66 0.33 1.32 0.66 2 1 C-4.92938497 9.81548975 -4.92938497 9.81548975 -11 11 C-7.6189962 6.86378916 -4.33409466 3.18683431 0 0 Z " fill="#63AAB7" transform="translate(90,51)"/>
<path d="M0 0 C0 0.66 0 1.32 0 2 C-2.43133054 3.63863397 -4.84771535 5.14921334 -7.375 6.625 C-8.07367188 7.04523437 -8.77234375 7.46546875 -9.4921875 7.8984375 C-14.72859172 11 -14.72859172 11 -17 11 C-17 10.34 -17 9.68 -17 9 C-14.56866946 7.36136603 -12.15228465 5.85078666 -9.625 4.375 C-8.57699219 3.74464844 -8.57699219 3.74464844 -7.5078125 3.1015625 C-2.27140828 0 -2.27140828 0 0 0 Z " fill="#8C9B7D" transform="translate(248,41)"/>
<path d="M0 0 C0 0.66 0 1.32 0 2 C-2.07828493 3.50312477 -4.12791551 4.85724824 -6.3125 6.1875 C-6.90740234 6.56841797 -7.50230469 6.94933594 -8.11523438 7.34179688 C-9.69380094 8.31362948 -11.34486531 9.16521849 -13 10 C-13.99 9.67 -14.98 9.34 -16 9 C-13.71180854 7.49445366 -11.41978831 5.99542957 -9.125 4.5 C-8.47402344 4.07074219 -7.82304687 3.64148438 -7.15234375 3.19921875 C-2.2265625 0 -2.2265625 0 0 0 Z " fill="#8B9E7D" transform="translate(251,181)"/>
<path d="M0 0 C-5.28 3.3 -10.56 6.6 -16 10 C-16 9.01 -16 8.02 -16 7 C-13.91496465 5.41763366 -11.92372272 4.08080205 -9.6875 2.75 C-9.09259766 2.37359375 -8.49769531 1.9971875 -7.88476562 1.609375 C-3.38217872 -1.12739291 -3.38217872 -1.12739291 0 0 Z " fill="#8FA082" transform="translate(290,113)"/>
<path d="M0 0 C-2.28819146 1.50554634 -4.58021169 3.00457043 -6.875 4.5 C-7.85146484 5.14388672 -7.85146484 5.14388672 -8.84765625 5.80078125 C-13.7734375 9 -13.7734375 9 -16 9 C-14.65166602 4.95499806 -12.76735567 4.36378914 -9.125 2.25 C-8.05507812 1.61578125 -6.98515625 0.9815625 -5.8828125 0.328125 C-3 -1 -3 -1 0 0 Z " fill="#8E9E81" transform="translate(246,141)"/>
<path d="M0 0 C0.56203125 0.22558594 1.1240625 0.45117188 1.703125 0.68359375 C0.713125 1.01359375 -0.276875 1.34359375 -1.296875 1.68359375 C-1.626875 2.67359375 -1.956875 3.66359375 -2.296875 4.68359375 C-4.9321289 6.10805532 -6.49092474 6.85204462 -9.46484375 6.23046875 C-10.37169922 5.95976562 -10.37169922 5.95976562 -11.296875 5.68359375 C-9.89135201 4.64747104 -8.47195806 3.6301445 -7.046875 2.62109375 C-6.25796875 2.05261719 -5.4690625 1.48414063 -4.65625 0.8984375 C-2.296875 -0.31640625 -2.296875 -0.31640625 0 0 Z " fill="#67AAB7" transform="translate(228.296875,257.31640625)"/>
<path d="M0 0 C-1.09897071 2.56426499 -2.03669277 4.03345517 -4.125 5.9375 C-6.26752004 7.87788094 -6.26752004 7.87788094 -6.25 10.75 C-6.1675 11.4925 -6.085 12.235 -6 13 C-6.66 13 -7.32 13 -8 13 C-7.65355522 4.89319213 -7.65355522 4.89319213 -5.125 1.4375 C-3 0 -3 0 0 0 Z " fill="#9BAC8D" transform="translate(214,184)"/>
<path d="M0 0 C2.05219747 1.83308264 3.39206263 3.72997078 5 6 C3.68 5.67 2.36 5.34 1 5 C1 4.34 1 3.68 1 3 C-0.45823212 2.9729957 -1.91660675 2.95360213 -3.375 2.9375 C-4.59316406 2.92009766 -4.59316406 2.92009766 -5.8359375 2.90234375 C-8.04937142 2.85533666 -8.04937142 2.85533666 -10 4 C-9.67 3.01 -9.34 2.02 -9 1 C-5.60352114 -0.13215962 -3.55582961 -0.49781615 0 0 Z " fill="#97B9C0" transform="translate(119,151)"/>
<path d="M0 0 C0.66 0 1.32 0 2 0 C2.125 7.625 2.125 7.625 1 11 C0.34 11 -0.32 11 -1 11 C-0.67 7.37 -0.34 3.74 0 0 Z " fill="#4E93A3" transform="translate(255,228)"/>
<path d="M0 0 C0.99 0.33 1.98 0.66 3 1 C3.74926071 4.66305234 4.2380014 7.42355152 3 11 C2.34 11 1.68 11 1 11 C0.67 7.37 0.34 3.74 0 0 Z " fill="#9AA98B" transform="translate(264,28)"/>
<path d="M0 0 C0 0.66 0 1.32 0 2 C-0.99 2 -1.98 2 -3 2 C-3 2.66 -3 3.32 -3 4 C-3.66 4 -4.32 4 -5 4 C-5.33 4.99 -5.66 5.98 -6 7 C-7.32 7 -8.64 7 -10 7 C-10 6.34 -10 5.68 -10 5 C-8.3203125 3.7109375 -8.3203125 3.7109375 -6.125 2.375 C-5.40570313 1.92898437 -4.68640625 1.48296875 -3.9453125 1.0234375 C-2 0 -2 0 0 0 Z " fill="#66A4B1" transform="translate(133,25)"/>
<path d="M0 0 C0.99 0.33 1.98 0.66 3 1 C3 1.99 3 2.98 3 4 C3.7734375 5.2684375 3.7734375 5.2684375 4.5625 6.5625 C5.036875 7.366875 5.51125 8.17125 6 9 C5.67 9.66 5.34 10.32 5 11 C4.34 10.67 3.68 10.34 3 10 C3 9.34 3 8.68 3 8 C2.34 8 1.68 8 1 8 C0.67 5.36 0.34 2.72 0 0 Z " fill="#84ACB5" transform="translate(121,238)"/>
<path d="M0 0 C1 3 1 3 -0.0625 5.5625 C-2.44133938 8.55523341 -4.34410148 9.10633592 -8 10 C-7.59007812 9.52949219 -7.18015625 9.05898437 -6.7578125 8.57421875 C-6.21898437 7.95160156 -5.68015625 7.32898438 -5.125 6.6875 C-4.59132812 6.07261719 -4.05765625 5.45773438 -3.5078125 4.82421875 C-1.8359553 2.86501788 -1.8359553 2.86501788 0 0 Z " fill="#8DB0B8" transform="translate(260,208)"/>
<path d="M0 0 C-0.39803561 2.88575819 -0.79009069 3.82189513 -3.0625 5.75 C-3.701875 6.1625 -4.34125 6.575 -5 7 C-5.33 6.01 -5.66 5.02 -6 4 C-2.25 0 -2.25 0 0 0 Z " fill="#A6B78B" transform="translate(274,58)"/>
<path d="M0 0 C0.66 0.33 1.32 0.66 2 1 C2 3 2 3 0.1875 4.9375 C-0.534375 5.618125 -1.25625 6.29875 -2 7 C-2.5775 7.5775 -3.155 8.155 -3.75 8.75 C-4.36875 9.36875 -4.36875 9.36875 -5 10 C-3.14285714 2.42857143 -3.14285714 2.42857143 0 0 Z " fill="#9BA995" transform="translate(288,179)"/>
<path d="M0 0 C1.6396875 0.2475 1.6396875 0.2475 3.3125 0.5 C6.87525873 1.06718184 6.87525873 1.06718184 10 1 C9.01 2.485 9.01 2.485 8 4 C5.375 4.1875 5.375 4.1875 3 4 C2.67 3.01 2.34 2.02 2 1 C1.34 0.67 0.68 0.34 0 0 Z " fill="#AEB7A3" transform="translate(223,136)"/>
<path d="M0 0 C2.27505004 2.16671432 4.23575092 4.39563231 6 7 C6 7.66 6 8.32 6 9 C5.34 9 4.68 9 4 9 C4 8.34 4 7.68 4 7 C3.34 7 2.68 7 2 7 C0 4 0 4 0 0 Z " fill="#7DABB6" transform="translate(94,205)"/>
<path d="M0 0 C0.33 1.32 0.66 2.64 1 4 C0.01 4.33 -0.98 4.66 -2 5 C-2.33 5.99 -2.66 6.98 -3 8 C-3.66 7.67 -4.32 7.34 -5 7 C-1.125 1.125 -1.125 1.125 0 0 Z " fill="#A0AE8D" transform="translate(299,133)"/>
<path d="M0 0 C-0.33 0.99 -0.66 1.98 -1 3 C-3.31 3.33 -5.62 3.66 -8 4 C-5.29881977 1.17603885 -4.05589853 0 0 0 Z " fill="#9FAF8B" transform="translate(263,70)"/>
</svg>
